<svg width="100" height="87" viewBox="0 0 100 87" fill="none" xmlns="http://www.w3.org/2000/svg">
<path d="M100 43.5L75 87H25L0 43.5L25 0L75 2.1956e-06L100 43.5Z" fill="#A300AC"/>
<path d="M45.328 51.192C45.1147 49.4853 45.2427 47.992 45.712 46.712C46.224 45.432 46.928 44.28 47.824 43.256C48.7627 42.232 49.7867 41.2933 50.896 40.44C52.048 39.5867 53.1147 38.7547 54.096 37.944C55.12 37.1333 55.952 36.3013 56.592 35.448C57.232 34.5947 57.552 33.656 57.552 32.632C57.552 31.352 57.232 30.264 56.592 29.368C55.952 28.472 55.0133 27.7893 53.776 27.32C52.5813 26.8507 51.1307 26.616 49.424 26.616C47.4613 26.616 45.6693 27.0427 44.048 27.896C42.4267 28.7493 40.8267 30.008 39.248 31.672L34 26.808C36.048 24.4613 38.4587 22.584 41.232 21.176C44.048 19.7253 47.1413 19 50.512 19C53.6267 19 56.3787 19.4693 58.768 20.408C61.2 21.3467 63.0987 22.776 64.464 24.696C65.872 26.5733 66.576 28.9413 66.576 31.8C66.576 33.3787 66.2347 34.7653 65.552 35.96C64.912 37.112 64.0587 38.1573 62.992 39.096C61.968 39.992 60.88 40.8667 59.728 41.72C58.576 42.5307 57.5093 43.384 56.528 44.28C55.5467 45.176 54.7787 46.1787 54.224 47.288C53.6693 48.3973 53.456 49.6987 53.584 51.192H45.328ZM49.488 68.216C47.8667 68.216 46.5227 67.6827 45.456 66.616C44.3893 65.5493 43.856 64.2053 43.856 62.584C43.856 60.92 44.3893 59.5547 45.456 58.488C46.5227 57.4213 47.8667 56.888 49.488 56.888C51.1093 56.888 52.4533 57.4213 53.52 58.488C54.5867 59.5547 55.12 60.92 55.12 62.584C55.12 64.2053 54.5867 65.5493 53.52 66.616C52.4533 67.6827 51.1093 68.216 49.488 68.216Z" fill="#FCC7FF"/>
</svg>
