<svg width="100" height="87" viewBox="0 0 100 87" fill="none" xmlns="http://www.w3.org/2000/svg">
<path d="M100 43.5L75 87H25L0 43.5L25 0L75 2.1956e-06L100 43.5Z" fill="#FDFFCE"/>
<path d="M27.2437 64L28.5886 69.0191L23.5695 67.6742L27.2437 64Z" fill="#EBEF83"/>
<path d="M50.2437 71L51.5886 76.0191L46.5695 74.6742L50.2437 71Z" fill="#EBEF83"/>
<path d="M58.2437 5L59.5886 10.0191L54.5695 8.67423L58.2437 5Z" fill="#EBEF83"/>
<path d="M28.737 49.6575L26.0355 54.0962L23.5422 49.5373L28.737 49.6575Z" fill="#EBEF83"/>
<path d="M32.2227 11.3433L27.0268 11.2924L29.6688 6.81808L32.2227 11.3433Z" fill="#EBEF83"/>
<path d="M58.8329 74.7539L62.5071 78.4281L57.488 79.773L58.8329 74.7539Z" fill="#EBEF83"/>
<path d="M62.7515 45.6724L66.4257 49.3467L61.4066 50.6915L62.7515 45.6724Z" fill="#EBEF83"/>
<path d="M36.7515 22.6724L40.4257 26.3467L35.4066 27.6915L36.7515 22.6724Z" fill="#EBEF83"/>
<path d="M75.7515 12.6724L79.4257 16.3467L74.4066 17.6915L75.7515 12.6724Z" fill="#EBEF83"/>
<path d="M70.7515 30.6724L74.4257 34.3467L69.4066 35.6915L70.7515 30.6724Z" fill="#EBEF83"/>
<path d="M40 62.2387L45.1467 62.9541L41.9538 67.0536L40 62.2387Z" fill="#EBEF83"/>
<path d="M54 62.2387L59.1467 62.9541L55.9538 67.0536L54 62.2387Z" fill="#EBEF83"/>
<path d="M34 77.2387L39.1467 77.9541L35.9538 82.0536L34 77.2387Z" fill="#EBEF83"/>
<path d="M14 39.2387L19.1467 39.9541L15.9538 44.0536L14 39.2387Z" fill="#EBEF83"/>
<path d="M53 29.2387L58.1467 29.9541L54.9538 34.0536L53 29.2387Z" fill="#EBEF83"/>
<path d="M51.7533 51.182L48.0791 54.8562L46.7342 49.8371L51.7533 51.182Z" fill="#EBEF83"/>
<path d="M25.7533 28.182L22.0791 31.8562L20.7342 26.8371L25.7533 28.182Z" fill="#EBEF83"/>
<path d="M64.7533 18.182L61.0791 21.8562L59.7342 16.8371L64.7533 18.182Z" fill="#EBEF83"/>
<path d="M86.7533 44.182L83.0791 47.8562L81.7342 42.8371L86.7533 44.182Z" fill="#EBEF83"/>
<path d="M92.7533 34.182L89.0791 37.8562L87.7342 32.8371L92.7533 34.182Z" fill="#EBEF83"/>
<path d="M74.3615 61.021L75.296 66.1324L70.4021 64.386L74.3615 61.021Z" fill="#EBEF83"/>
<path d="M40.468 42.0426L35.2857 42.4227L37.5476 37.7447L40.468 42.0426Z" fill="#EBEF83"/>
<path d="M44.658 12.1981L43.6486 17.2952L39.7391 13.8724L44.658 12.1981Z" fill="#EBEF83"/>
</svg>
